<svg xmlns="http://www.w3.org/2000/svg" xmlns:xlink="http://www.w3.org/1999/xlink" width="90" zoomAndPan="magnify" viewBox="0 0 67.5 30.000001" height="40" preserveAspectRatio="xMidYMid meet" version="1.0"><defs><g/><clipPath id="757186db76"><path d="M 0.847656 0 L 66.167969 0 L 66.167969 29.03125 L 0.847656 29.03125 Z M 0.847656 0 " clip-rule="nonzero"/></clipPath><clipPath id="2c6a759a49"><path d="M 13 0 L 66.167969 0 L 66.167969 29.03125 L 13 29.03125 Z M 13 0 " clip-rule="nonzero"/></clipPath><clipPath id="0777c694fb"><path d="M 0.847656 0 L 66 0 L 66 29.03125 L 0.847656 29.03125 Z M 0.847656 0 " clip-rule="nonzero"/></clipPath></defs><g clip-path="url(#757186db76)"><path fill="#ffffff" d="M 0.847656 0 L 66.167969 0 L 66.167969 29.03125 L 0.847656 29.03125 Z M 0.847656 0 " fill-opacity="1" fill-rule="nonzero"/><path fill="#ffffff" d="M 0.847656 0 L 66.167969 0 L 66.167969 29.03125 L 0.847656 29.03125 Z M 0.847656 0 " fill-opacity="1" fill-rule="nonzero"/></g><g clip-path="url(#2c6a759a49)"><path fill="#003b49" d="M 32.4375 26.015625 C 31.335938 25.078125 30.375 24.007812 29.578125 22.832031 L 29.566406 22.824219 L 29.4375 22.625 L 29.367188 22.550781 L 29.296875 22.398438 C 29.148438 22.164062 29.007812 21.925781 28.875 21.683594 C 28.6875 21.679688 28.496094 21.679688 28.300781 21.679688 L 18.46875 21.679688 L 13.136719 29.015625 L 37.492188 29.015625 C 35.578125 28.25 33.882812 27.242188 32.4375 26.015625 Z M 45.730469 0.480469 C 43.257812 0.480469 40.96875 0.8125 38.863281 1.480469 C 36.757812 2.148438 34.945312 3.101562 33.425781 4.339844 C 32.921875 4.75 32.453125 5.183594 32.023438 5.644531 L 37.460938 13.515625 C 37.566406 13 37.734375 12.515625 37.96875 12.058594 C 38.394531 11.222656 38.984375 10.488281 39.738281 9.863281 C 40.492188 9.238281 41.378906 8.753906 42.402344 8.414062 C 43.425781 8.070312 44.535156 7.902344 45.730469 7.902344 L 60.445312 7.902344 L 66.164062 0.480469 Z M 45.730469 0.480469 " fill-opacity="1" fill-rule="nonzero"/></g><g clip-path="url(#0777c694fb)"><path fill="#cb9a28" d="M 47.054688 11.1875 L 41.765625 17.542969 L 56.523438 17.542969 L 56.523438 21.679688 L 45.730469 21.679688 C 44.703125 21.679688 43.75 21.5625 42.863281 21.332031 C 42.691406 21.289062 42.527344 21.242188 42.359375 21.1875 C 41.5625 20.933594 40.847656 20.597656 40.214844 20.179688 C 40.035156 20.058594 39.863281 19.933594 39.695312 19.800781 C 38.941406 19.207031 38.359375 18.488281 37.945312 17.648438 C 37.71875 17.1875 37.554688 16.699219 37.453125 16.179688 L 31.015625 6.859375 L 30.078125 5.5 L 28.492188 3.207031 C 27.867188 2.300781 27.105469 1.539062 26.210938 0.925781 C 25.3125 0.316406 24.199219 0.0117188 22.863281 0.0117188 C 21.46875 0.0117188 20.316406 0.335938 19.40625 0.992188 C 18.496094 1.644531 17.742188 2.386719 17.144531 3.207031 L -1.152344 29.015625 L 9.296875 29.015625 L 22.691406 10.078125 L 27.179688 16.695312 L 27.808594 17.625 C 28.292969 18.308594 28.796875 19.042969 29.324219 19.824219 C 29.816406 20.558594 30.253906 21.171875 30.632812 21.667969 C 30.636719 21.667969 30.636719 21.667969 30.636719 21.667969 C 30.65625 21.699219 30.675781 21.730469 30.695312 21.761719 C 31.441406 22.914062 32.351562 23.945312 33.425781 24.855469 C 34.945312 26.152344 36.757812 27.167969 38.863281 27.90625 C 40.96875 28.648438 43.257812 29.015625 45.730469 29.015625 L 65.308594 29.015625 L 65.308594 11.1875 Z M 47.054688 11.1875 " fill-opacity="1" fill-rule="nonzero"/></g><g fill="#ffffff" fill-opacity="1"><g transform="translate(8.735393, 3.943788)"><g><path d="M 0.40625 -0.375 L 0.4375 -0.375 L 0.4375 -0.5 C 0.4375 -0.601562 0.429688 -0.671875 0.421875 -0.703125 C 0.410156 -0.734375 0.390625 -0.75 0.359375 -0.75 C 0.335938 -0.75 0.316406 -0.742188 0.296875 -0.734375 C 0.285156 -0.722656 0.28125 -0.707031 0.28125 -0.6875 C 0.28125 -0.675781 0.285156 -0.660156 0.296875 -0.640625 L 0.34375 -0.640625 C 0.34375 -0.617188 0.34375 -0.59375 0.34375 -0.5625 C 0.34375 -0.53125 0.328125 -0.503906 0.296875 -0.484375 C 0.273438 -0.460938 0.242188 -0.453125 0.203125 -0.453125 C 0.117188 -0.453125 0.078125 -0.492188 0.078125 -0.578125 C 0.078125 -0.710938 0.1875 -0.78125 0.40625 -0.78125 C 0.53125 -0.78125 0.613281 -0.753906 0.65625 -0.703125 C 0.707031 -0.660156 0.734375 -0.582031 0.734375 -0.46875 L 0.734375 -0.15625 C 0.734375 -0.09375 0.75 -0.0625 0.78125 -0.0625 C 0.820312 -0.0625 0.84375 -0.117188 0.84375 -0.234375 L 0.875 -0.234375 C 0.875 -0.140625 0.859375 -0.0703125 0.828125 -0.03125 C 0.796875 0 0.742188 0.015625 0.671875 0.015625 C 0.546875 0.015625 0.472656 -0.0234375 0.453125 -0.109375 C 0.441406 -0.0664062 0.421875 -0.0351562 0.390625 -0.015625 C 0.359375 0.00390625 0.316406 0.015625 0.265625 0.015625 C 0.109375 0.015625 0.03125 -0.046875 0.03125 -0.171875 C 0.03125 -0.253906 0.0625 -0.304688 0.125 -0.328125 C 0.1875 -0.359375 0.28125 -0.375 0.40625 -0.375 Z M 0.328125 -0.171875 C 0.328125 -0.117188 0.332031 -0.0820312 0.34375 -0.0625 C 0.351562 -0.0507812 0.363281 -0.046875 0.375 -0.046875 C 0.394531 -0.046875 0.410156 -0.0546875 0.421875 -0.078125 C 0.429688 -0.109375 0.4375 -0.148438 0.4375 -0.203125 L 0.4375 -0.34375 C 0.363281 -0.34375 0.328125 -0.296875 0.328125 -0.203125 Z M 0.328125 -0.171875 "/></g></g></g></svg>