<svg xmlns="http://www.w3.org/2000/svg" xmlns:xlink="http://www.w3.org/1999/xlink" width="180" zoomAndPan="magnify" viewBox="0 0 135 37.5" height="50" preserveAspectRatio="xMidYMid meet" version="1.0"><defs><g/><clipPath id="ae9642bdab"><path d="M 0.886719 0 L 134.109375 0 L 134.109375 37.007812 L 0.886719 37.007812 Z M 0.886719 0 " clip-rule="nonzero"/></clipPath><clipPath id="53cd622683"><path d="M 0.886719 0 L 37 0 L 37 36.265625 L 0.886719 36.265625 Z M 0.886719 0 " clip-rule="nonzero"/></clipPath><clipPath id="3da58fb372"><path d="M 20 8 L 45.296875 8 L 45.296875 33 L 20 33 Z M 20 8 " clip-rule="nonzero"/></clipPath></defs><g clip-path="url(#ae9642bdab)"><path fill="#ffffff" d="M 0.886719 0 L 134.113281 0 L 134.113281 37.007812 L 0.886719 37.007812 Z M 0.886719 0 " fill-opacity="1" fill-rule="nonzero"/><path fill="#ffffff" d="M 0.886719 0 L 134.113281 0 L 134.113281 37.007812 L 0.886719 37.007812 Z M 0.886719 0 " fill-opacity="1" fill-rule="nonzero"/></g><g clip-path="url(#53cd622683)"><path fill="#d8ab6f" d="M 26.683594 10.824219 C 26.484375 10.910156 26.289062 11.003906 26.097656 11.101562 C 25.796875 11.253906 25.507812 11.417969 25.230469 11.589844 L 22.765625 5.324219 C 22.585938 5.679688 22.417969 6.046875 22.261719 6.425781 C 21.878906 7.359375 21.523438 8.28125 21.203125 9.191406 L 18.261719 17.78125 L 27.660156 17.78125 L 25.898438 13.296875 C 26.316406 12.890625 26.773438 12.53125 27.269531 12.214844 L 32.972656 25.785156 C 33.339844 26.445312 33.785156 26.933594 34.308594 27.238281 C 34.917969 27.597656 35.503906 27.773438 36.074219 27.773438 L 36.410156 27.773438 L 36.410156 28.144531 L 28.9375 28.144531 L 28.9375 27.773438 L 29.269531 27.773438 C 29.570312 27.773438 29.859375 27.683594 30.144531 27.496094 C 30.429688 27.3125 30.632812 27.050781 30.757812 26.703125 C 30.871094 26.398438 30.863281 26.027344 30.734375 25.601562 L 28.097656 18.886719 L 17.882812 18.886719 L 16.445312 23.089844 C 15.5 25.84375 14.441406 28.148438 13.265625 30.003906 C 12.085938 31.859375 10.816406 33.285156 9.453125 34.28125 C 8.089844 35.277344 6.691406 35.871094 5.253906 36.070312 C 3.816406 36.265625 2.363281 36.09375 0.902344 35.554688 L 0.9375 35.183594 C 2.277344 35.480469 3.523438 35.417969 4.675781 35 C 5.828125 34.582031 6.875 33.925781 7.816406 33.027344 C 8.757812 32.128906 9.613281 31.078125 10.382812 29.875 C 11.152344 28.671875 11.832031 27.421875 12.429688 26.132812 C 13.023438 24.84375 13.53125 23.609375 13.953125 22.429688 L 18.488281 9.671875 C 18.859375 8.640625 19.277344 7.570312 19.734375 6.464844 C 20.191406 5.359375 20.746094 4.324219 21.390625 3.367188 C 22.035156 2.410156 22.820312 1.628906 23.75 1.027344 C 24.679688 0.421875 25.789062 0.0976562 27.078125 0.046875 C 28.367188 0 29.890625 0.34375 31.652344 1.082031 L 31.539062 1.449219 C 30.226562 0.984375 29.078125 0.804688 28.101562 0.914062 C 27.121094 1.027344 26.265625 1.339844 25.535156 1.855469 C 24.832031 2.351562 24.222656 2.976562 23.703125 3.730469 Z M 26.683594 10.824219 " fill-opacity="1" fill-rule="evenodd"/></g><g clip-path="url(#3da58fb372)"><path fill="#d8ab6f" d="M 20.425781 18.519531 C 20.636719 16.957031 21.101562 15.566406 21.820312 14.347656 C 22.835938 12.625 24.261719 11.296875 26.097656 10.363281 C 27.929688 9.429688 30.0625 8.964844 32.492188 8.964844 C 33.632812 8.964844 34.703125 9.042969 35.707031 9.203125 C 36.710938 9.363281 37.667969 9.609375 38.570312 9.941406 C 39.476562 10.273438 40.335938 10.695312 41.15625 11.210938 L 41.972656 16.410156 L 41.636719 16.410156 C 41.292969 14.960938 40.726562 13.769531 39.945312 12.835938 C 39.164062 11.902344 38.15625 11.207031 36.917969 10.75 C 35.675781 10.296875 34.191406 10.070312 32.453125 10.070312 C 30.570312 10.070312 28.917969 10.492188 27.492188 11.339844 C 26.066406 12.1875 24.957031 13.394531 24.164062 14.953125 C 23.628906 16.007812 23.273438 17.195312 23.101562 18.519531 Z M 22.996094 19.625 C 22.980469 19.925781 22.972656 20.230469 22.972656 20.539062 C 22.972656 22.679688 23.371094 24.535156 24.164062 26.105469 C 24.957031 27.679688 26.070312 28.890625 27.507812 29.738281 C 28.945312 30.585938 30.609375 31.011719 32.492188 31.011719 C 33.53125 31.011719 34.523438 30.898438 35.464844 30.679688 C 36.40625 30.457031 37.320312 30.109375 38.199219 29.628906 C 39.078125 29.148438 39.902344 28.539062 40.671875 27.804688 L 40.707031 22.898438 C 40.734375 22.433594 40.589844 22.078125 40.28125 21.832031 C 39.972656 21.585938 39.542969 21.460938 39 21.460938 L 38.476562 21.460938 L 38.476562 21.09375 L 45.28125 21.09375 L 45.28125 21.460938 L 44.761719 21.460938 C 43.644531 21.460938 43.089844 21.953125 43.089844 22.9375 L 43.089844 27.359375 C 42.519531 28.074219 41.738281 28.796875 40.746094 29.535156 C 39.753906 30.273438 38.570312 30.886719 37.195312 31.378906 C 35.820312 31.871094 34.25 32.117188 32.492188 32.117188 C 30.039062 32.09375 27.898438 31.613281 26.078125 30.679688 C 24.257812 29.746094 22.835938 28.417969 21.820312 26.695312 C 20.804688 24.976562 20.296875 22.925781 20.296875 20.539062 C 20.296875 20.230469 20.304688 19.925781 20.320312 19.625 Z M 22.996094 19.625 " fill-opacity="1" fill-rule="evenodd"/></g><g fill="#d8ab6f" fill-opacity="1"><g transform="translate(46.692456, 17.257604)"><g><path d="M 8.28125 0.28125 C 6.1875 0.269531 4.476562 -0.394531 3.15625 -1.71875 C 1.84375 -3.050781 1.1875 -4.796875 1.1875 -6.953125 C 1.1875 -9.117188 1.84375 -10.863281 3.15625 -12.1875 C 4.476562 -13.507812 6.226562 -14.171875 8.40625 -14.171875 C 10.175781 -14.171875 11.742188 -13.722656 13.109375 -12.828125 L 13.5 -10.03125 L 13.328125 -10.03125 C 13.035156 -11.164062 12.445312 -12.039062 11.5625 -12.65625 C 10.675781 -13.269531 9.625 -13.578125 8.40625 -13.578125 C 6.664062 -13.578125 5.273438 -12.972656 4.234375 -11.765625 C 3.203125 -10.566406 2.6875 -8.972656 2.6875 -6.984375 C 2.6875 -5.003906 3.195312 -3.40625 4.21875 -2.1875 C 5.25 -0.976562 6.601562 -0.351562 8.28125 -0.3125 C 9.757812 -0.3125 11 -0.71875 12 -1.53125 C 13.070312 -2.40625 13.71875 -3.828125 13.9375 -5.796875 L 14.09375 -5.796875 L 13.859375 -2.6875 C 12.648438 -0.707031 10.789062 0.28125 8.28125 0.28125 Z M 8.28125 0.28125 "/></g></g></g><g fill="#d8ab6f" fill-opacity="1"><g transform="translate(61.78323, 17.257604)"><g><path d="M 13.109375 -0.203125 L 13.265625 -0.203125 L 13.265625 0 L 9.1875 0 L 9.1875 -0.203125 L 9.359375 -0.203125 C 9.609375 -0.203125 9.796875 -0.285156 9.921875 -0.453125 C 10.054688 -0.628906 10.125 -0.789062 10.125 -0.9375 C 10.125 -1.09375 10.097656 -1.242188 10.046875 -1.390625 L 8.953125 -4.03125 L 3.9375 -4.03125 L 2.84375 -1.453125 C 2.769531 -1.273438 2.734375 -1.109375 2.734375 -0.953125 C 2.734375 -0.804688 2.800781 -0.644531 2.9375 -0.46875 C 3.070312 -0.289062 3.269531 -0.203125 3.53125 -0.203125 L 3.6875 -0.203125 L 3.6875 0 L -0.09375 0 L -0.09375 -0.203125 L 0.0625 -0.203125 C 0.34375 -0.203125 0.625 -0.296875 0.90625 -0.484375 C 1.1875 -0.679688 1.421875 -0.96875 1.609375 -1.34375 C 4.503906 -7.539062 6.015625 -10.785156 6.140625 -11.078125 C 6.359375 -11.640625 6.476562 -12.007812 6.5 -12.1875 L 6.671875 -12.1875 L 11.578125 -1.34375 C 11.960938 -0.582031 12.472656 -0.203125 13.109375 -0.203125 Z M 4.1875 -4.625 L 8.71875 -4.625 L 6.5 -10.0625 Z M 4.1875 -4.625 "/></g></g></g><g fill="#d8ab6f" fill-opacity="1"><g transform="translate(74.947952, 17.257604)"><g><path d="M 4.8125 -11.296875 L 3.75 -11.296875 L 3.75 -1.265625 C 3.757812 -0.859375 3.945312 -0.550781 4.3125 -0.34375 C 4.476562 -0.25 4.671875 -0.203125 4.890625 -0.203125 L 5.140625 -0.203125 L 5.15625 0 L 1.09375 0 L 1.09375 -0.203125 L 1.375 -0.203125 C 1.675781 -0.203125 1.9375 -0.300781 2.15625 -0.5 C 2.375 -0.707031 2.484375 -0.957031 2.484375 -1.25 L 2.484375 -10.6875 C 2.484375 -10.976562 2.375 -11.222656 2.15625 -11.421875 C 1.9375 -11.617188 1.675781 -11.71875 1.375 -11.71875 L 1.09375 -11.71875 L 1.09375 -11.921875 L 6.078125 -11.921875 C 7.316406 -11.921875 8.296875 -11.632812 9.015625 -11.0625 C 9.742188 -10.488281 10.109375 -9.738281 10.109375 -8.8125 C 10.109375 -7.882812 9.816406 -7.109375 9.234375 -6.484375 C 8.648438 -5.867188 7.910156 -5.515625 7.015625 -5.421875 C 7.429688 -5.234375 7.941406 -4.71875 8.546875 -3.875 C 8.523438 -3.875 8.75 -3.582031 9.21875 -3 C 9.6875 -2.414062 10.0625 -1.960938 10.34375 -1.640625 C 10.632812 -1.316406 10.875 -1.066406 11.0625 -0.890625 C 11.550781 -0.429688 12.113281 -0.203125 12.75 -0.203125 L 12.75 0 L 12.140625 0 C 11.085938 0 10.265625 -0.203125 9.671875 -0.609375 C 9.222656 -0.921875 8.8125 -1.300781 8.4375 -1.75 C 8.363281 -1.851562 8.03125 -2.316406 7.4375 -3.140625 C 6.84375 -3.972656 6.53125 -4.414062 6.5 -4.46875 C 5.78125 -5.351562 5.109375 -5.796875 4.484375 -5.796875 L 4.484375 -6 C 6.035156 -6 6.96875 -6.078125 7.28125 -6.234375 C 7.71875 -6.460938 8.019531 -6.703125 8.1875 -6.953125 C 8.507812 -7.484375 8.671875 -8.066406 8.671875 -8.703125 C 8.671875 -9.503906 8.429688 -10.125 7.953125 -10.5625 C 7.484375 -11 6.84375 -11.238281 6.03125 -11.28125 C 5.675781 -11.289062 5.269531 -11.296875 4.8125 -11.296875 Z M 4.8125 -11.296875 "/></g></g></g><g fill="#d8ab6f" fill-opacity="1"><g transform="translate(87.39784, 17.257604)"><g><path d="M 7.5 0.28125 C 5.53125 0.269531 3.953125 -0.289062 2.765625 -1.40625 C 1.585938 -2.53125 1 -4.050781 1 -5.96875 C 1 -7.882812 1.585938 -9.398438 2.765625 -10.515625 C 3.953125 -11.628906 5.484375 -12.1875 7.359375 -12.1875 C 9.234375 -12.1875 10.828125 -11.789062 12.140625 -11 L 12.578125 -8.1875 L 12.390625 -8.1875 C 12.109375 -9.34375 11.566406 -10.195312 10.765625 -10.75 C 9.972656 -11.3125 8.84375 -11.59375 7.375 -11.59375 C 5.914062 -11.59375 4.722656 -11.085938 3.796875 -10.078125 C 2.878906 -9.066406 2.421875 -7.691406 2.421875 -5.953125 C 2.421875 -4.222656 2.882812 -2.847656 3.8125 -1.828125 C 4.738281 -0.816406 6.019531 -0.3125 7.65625 -0.3125 C 9.289062 -0.3125 10.695312 -0.890625 11.875 -2.046875 L 11.890625 -4.6875 C 11.910156 -4.925781 11.835938 -5.113281 11.671875 -5.25 C 11.503906 -5.394531 11.273438 -5.46875 10.984375 -5.46875 L 10.703125 -5.46875 L 10.703125 -5.65625 L 14.34375 -5.65625 L 14.34375 -5.46875 L 14.0625 -5.46875 C 13.46875 -5.46875 13.171875 -5.203125 13.171875 -4.671875 L 13.171875 -2.28125 C 12.609375 -1.59375 11.835938 -0.992188 10.859375 -0.484375 C 9.890625 0.0234375 8.769531 0.28125 7.5 0.28125 Z M 7.5 0.28125 "/></g></g></g><g fill="#d8ab6f" fill-opacity="1"><g transform="translate(102.131208, 17.257604)"><g><path d="M 4.328125 -11.40625 C 5.347656 -11.925781 6.46875 -12.1875 7.6875 -12.1875 C 8.914062 -12.1875 10.039062 -11.925781 11.0625 -11.40625 C 12.082031 -10.882812 12.890625 -10.144531 13.484375 -9.1875 C 14.085938 -8.238281 14.390625 -7.160156 14.390625 -5.953125 C 14.390625 -4.753906 14.085938 -3.675781 13.484375 -2.71875 C 12.890625 -1.769531 12.082031 -1.03125 11.0625 -0.5 C 10.039062 0.0195312 8.992188 0.28125 7.921875 0.28125 C 6.847656 0.28125 5.898438 0.128906 5.078125 -0.171875 C 4.265625 -0.484375 3.554688 -0.910156 2.953125 -1.453125 C 2.347656 -1.992188 1.867188 -2.65625 1.515625 -3.4375 C 1.171875 -4.21875 1 -5.132812 1 -6.1875 C 1 -7.238281 1.296875 -8.238281 1.890625 -9.1875 C 2.492188 -10.144531 3.304688 -10.882812 4.328125 -11.40625 Z M 3.96875 -1.890625 C 4.96875 -0.835938 6.207031 -0.3125 7.6875 -0.3125 C 9.164062 -0.3125 10.40625 -0.835938 11.40625 -1.890625 C 12.414062 -2.941406 12.921875 -4.296875 12.921875 -5.953125 C 12.921875 -7.609375 12.414062 -8.960938 11.40625 -10.015625 C 10.40625 -11.066406 9.164062 -11.59375 7.6875 -11.59375 C 6.207031 -11.59375 4.96875 -11.066406 3.96875 -10.015625 C 2.96875 -8.960938 2.46875 -7.609375 2.46875 -5.953125 C 2.46875 -4.296875 2.96875 -2.941406 3.96875 -1.890625 Z M 3.96875 -1.890625 "/></g></g></g><g fill="#d8ab6f" fill-opacity="1"><g transform="translate(48.88885, 30.001461)"><g><path d="M 0.625 -0.109375 C 0.820312 -0.109375 0.988281 -0.175781 1.125 -0.3125 C 1.269531 -0.457031 1.347656 -0.628906 1.359375 -0.828125 L 1.359375 -7.125 C 1.347656 -7.320312 1.269531 -7.488281 1.125 -7.625 C 0.988281 -7.769531 0.820312 -7.84375 0.625 -7.84375 L 0.484375 -7.84375 L 0.484375 -7.953125 L 3.9375 -7.953125 L 3.921875 -7.84375 L 3.78125 -7.84375 C 3.582031 -7.84375 3.410156 -7.769531 3.265625 -7.625 C 3.128906 -7.488281 3.0625 -7.320312 3.0625 -7.125 L 3.0625 -0.484375 L 4.546875 -0.484375 C 5.097656 -0.484375 5.5625 -0.640625 5.9375 -0.953125 C 6.3125 -1.273438 6.585938 -1.726562 6.765625 -2.3125 L 6.890625 -2.3125 L 6.359375 0 L 0.484375 0 L 0.484375 -0.109375 Z M 0.625 -0.109375 "/></g></g></g><g fill="#d8ab6f" fill-opacity="1"><g transform="translate(55.884356, 30.001461)"><g><path d="M 0.390625 -3.40625 C 0.390625 -4.5 0.753906 -5.363281 1.484375 -6 C 2.222656 -6.644531 3.195312 -6.96875 4.40625 -6.96875 C 5.625 -6.96875 6.597656 -6.644531 7.328125 -6 C 8.066406 -5.363281 8.4375 -4.5 8.4375 -3.40625 C 8.4375 -2.3125 8.066406 -1.445312 7.328125 -0.8125 C 6.597656 -0.175781 5.625 0.140625 4.40625 0.140625 C 3.195312 0.140625 2.222656 -0.175781 1.484375 -0.8125 C 0.753906 -1.445312 0.390625 -2.3125 0.390625 -3.40625 Z M 2.140625 -3.40625 C 2.140625 -2.445312 2.34375 -1.691406 2.75 -1.140625 C 3.164062 -0.585938 3.71875 -0.3125 4.40625 -0.3125 C 5.101562 -0.3125 5.65625 -0.585938 6.0625 -1.140625 C 6.476562 -1.691406 6.6875 -2.445312 6.6875 -3.40625 C 6.6875 -4.363281 6.476562 -5.117188 6.0625 -5.671875 C 5.65625 -6.234375 5.101562 -6.515625 4.40625 -6.515625 C 3.71875 -6.515625 3.164062 -6.234375 2.75 -5.671875 C 2.34375 -5.117188 2.140625 -4.363281 2.140625 -3.40625 Z M 2.140625 -3.40625 "/></g></g></g><g fill="#d8ab6f" fill-opacity="1"><g transform="translate(64.708225, 30.001461)"><g><path d="M 1.40625 -0.8125 C 0.726562 -1.445312 0.390625 -2.316406 0.390625 -3.421875 C 0.390625 -4.523438 0.726562 -5.390625 1.40625 -6.015625 C 2.082031 -6.648438 3.015625 -6.96875 4.203125 -6.96875 C 4.734375 -6.96875 5.253906 -6.914062 5.765625 -6.8125 C 6.285156 -6.71875 6.703125 -6.59375 7.015625 -6.4375 L 7.015625 -4.640625 L 6.921875 -4.640625 C 6.585938 -5.890625 5.796875 -6.515625 4.546875 -6.515625 C 3.753906 -6.515625 3.148438 -6.238281 2.734375 -5.6875 C 2.328125 -5.132812 2.125 -4.367188 2.125 -3.390625 C 2.125 -2.410156 2.3125 -1.648438 2.6875 -1.109375 C 3.0625 -0.578125 3.59375 -0.3125 4.28125 -0.3125 C 4.65625 -0.3125 4.992188 -0.398438 5.296875 -0.578125 C 5.609375 -0.753906 5.8125 -1.007812 5.90625 -1.34375 L 5.921875 -2.703125 C 5.921875 -2.847656 5.875 -2.957031 5.78125 -3.03125 C 5.695312 -3.113281 5.578125 -3.15625 5.421875 -3.15625 L 5.265625 -3.15625 L 5.265625 -3.25 L 8.171875 -3.25 L 8.171875 -3.15625 L 8.046875 -3.15625 C 7.710938 -3.15625 7.546875 -3.003906 7.546875 -2.703125 L 7.546875 -1.1875 C 7.273438 -0.84375 6.828125 -0.535156 6.203125 -0.265625 C 5.578125 0.00390625 4.890625 0.140625 4.140625 0.140625 C 2.992188 0.140625 2.082031 -0.175781 1.40625 -0.8125 Z M 1.40625 -0.8125 "/></g></g></g><g fill="#d8ab6f" fill-opacity="1"><g transform="translate(72.998351, 30.001461)"><g><path d="M 0.390625 -0.109375 L 0.515625 -0.109375 C 0.703125 -0.109375 0.859375 -0.164062 0.984375 -0.28125 C 1.117188 -0.40625 1.1875 -0.550781 1.1875 -0.71875 L 1.1875 -6.09375 C 1.1875 -6.257812 1.117188 -6.398438 0.984375 -6.515625 C 0.859375 -6.640625 0.703125 -6.703125 0.515625 -6.703125 L 0.390625 -6.703125 L 0.390625 -6.8125 L 3.609375 -6.8125 L 3.609375 -6.703125 L 3.46875 -6.703125 C 3.300781 -6.703125 3.148438 -6.644531 3.015625 -6.53125 C 2.890625 -6.414062 2.820312 -6.273438 2.8125 -6.109375 L 2.8125 -0.71875 C 2.820312 -0.539062 2.890625 -0.394531 3.015625 -0.28125 C 3.148438 -0.164062 3.300781 -0.109375 3.46875 -0.109375 L 3.609375 -0.109375 L 3.609375 0 L 0.390625 0 Z M 0.390625 -0.109375 "/></g></g></g><g fill="#d8ab6f" fill-opacity="1"><g transform="translate(76.99578, 30.001461)"><g><path d="M 0.515625 -0.9375 C 0.515625 -1.425781 0.628906 -1.84375 0.859375 -2.1875 L 0.9375 -2.1875 C 0.9375 -2.132812 0.9375 -2.085938 0.9375 -2.046875 C 0.9375 -1.585938 1.097656 -1.179688 1.421875 -0.828125 C 1.753906 -0.484375 2.21875 -0.3125 2.8125 -0.3125 C 3.226562 -0.3125 3.550781 -0.40625 3.78125 -0.59375 C 4.019531 -0.789062 4.140625 -1.007812 4.140625 -1.25 C 4.140625 -1.5 4.070312 -1.695312 3.9375 -1.84375 C 3.800781 -1.988281 3.582031 -2.160156 3.28125 -2.359375 L 1.671875 -3.390625 C 0.984375 -3.804688 0.640625 -4.347656 0.640625 -5.015625 C 0.640625 -5.085938 0.644531 -5.160156 0.65625 -5.234375 C 0.707031 -5.773438 0.914062 -6.195312 1.28125 -6.5 C 1.65625 -6.8125 2.09375 -6.96875 2.59375 -6.96875 C 3.09375 -6.96875 3.625 -6.929688 4.1875 -6.859375 L 4.8125 -6.859375 L 4.640625 -5.359375 L 4.546875 -5.359375 C 4.546875 -5.710938 4.421875 -5.992188 4.171875 -6.203125 C 3.929688 -6.410156 3.609375 -6.515625 3.203125 -6.515625 C 2.796875 -6.515625 2.472656 -6.425781 2.234375 -6.25 C 2.003906 -6.082031 1.890625 -5.859375 1.890625 -5.578125 C 1.890625 -5.347656 2 -5.148438 2.21875 -4.984375 C 2.3125 -4.921875 2.445312 -4.832031 2.625 -4.71875 L 4.4375 -3.609375 C 5.050781 -3.234375 5.359375 -2.710938 5.359375 -2.046875 C 5.359375 -1.335938 5.109375 -0.796875 4.609375 -0.421875 C 4.117188 -0.046875 3.476562 0.140625 2.6875 0.140625 C 2.207031 0.140625 1.78125 0.0859375 1.40625 -0.015625 C 1.039062 -0.128906 0.769531 -0.273438 0.59375 -0.453125 C 0.539062 -0.585938 0.515625 -0.75 0.515625 -0.9375 Z M 0.515625 -0.9375 "/></g></g></g><g fill="#d8ab6f" fill-opacity="1"><g transform="translate(82.832933, 30.001461)"><g><path d="M 6.578125 -5.203125 L 6.578125 -5.3125 C 6.578125 -5.632812 6.484375 -5.890625 6.296875 -6.078125 C 6.117188 -6.265625 5.867188 -6.363281 5.546875 -6.375 L 4.21875 -6.375 L 4.21875 -0.703125 C 4.226562 -0.535156 4.289062 -0.394531 4.40625 -0.28125 C 4.53125 -0.164062 4.675781 -0.109375 4.84375 -0.109375 L 4.96875 -0.109375 L 4.96875 0 L 1.84375 0 L 1.84375 -0.109375 L 1.953125 -0.109375 C 2.128906 -0.109375 2.273438 -0.164062 2.390625 -0.28125 C 2.515625 -0.394531 2.578125 -0.539062 2.578125 -0.71875 L 2.578125 -6.375 L 1.265625 -6.375 C 0.929688 -6.363281 0.675781 -6.265625 0.5 -6.078125 C 0.320312 -5.890625 0.234375 -5.632812 0.234375 -5.3125 L 0.234375 -5.203125 L 0.109375 -5.203125 L 0.109375 -7 C 0.210938 -6.957031 0.390625 -6.914062 0.640625 -6.875 C 0.890625 -6.84375 1.113281 -6.828125 1.3125 -6.828125 L 5.5 -6.828125 C 5.832031 -6.828125 6.101562 -6.847656 6.3125 -6.890625 C 6.53125 -6.941406 6.65625 -6.976562 6.6875 -7 L 6.6875 -5.203125 Z M 6.578125 -5.203125 "/></g></g></g><g fill="#d8ab6f" fill-opacity="1"><g transform="translate(89.635376, 30.001461)"><g><path d="M 0.390625 -0.109375 L 0.515625 -0.109375 C 0.703125 -0.109375 0.859375 -0.164062 0.984375 -0.28125 C 1.117188 -0.40625 1.1875 -0.550781 1.1875 -0.71875 L 1.1875 -6.09375 C 1.1875 -6.257812 1.117188 -6.398438 0.984375 -6.515625 C 0.859375 -6.640625 0.703125 -6.703125 0.515625 -6.703125 L 0.390625 -6.703125 L 0.390625 -6.8125 L 3.609375 -6.8125 L 3.609375 -6.703125 L 3.46875 -6.703125 C 3.300781 -6.703125 3.148438 -6.644531 3.015625 -6.53125 C 2.890625 -6.414062 2.820312 -6.273438 2.8125 -6.109375 L 2.8125 -0.71875 C 2.820312 -0.539062 2.890625 -0.394531 3.015625 -0.28125 C 3.148438 -0.164062 3.300781 -0.109375 3.46875 -0.109375 L 3.609375 -0.109375 L 3.609375 0 L 0.390625 0 Z M 0.390625 -0.109375 "/></g></g></g><g fill="#d8ab6f" fill-opacity="1"><g transform="translate(93.632804, 30.001461)"><g><path d="M 4.46875 0.140625 C 3.195312 0.140625 2.195312 -0.171875 1.46875 -0.796875 C 0.75 -1.421875 0.390625 -2.289062 0.390625 -3.40625 C 0.390625 -4.519531 0.75 -5.390625 1.46875 -6.015625 C 2.195312 -6.648438 3.195312 -6.96875 4.46875 -6.96875 C 5.46875 -6.96875 6.320312 -6.789062 7.03125 -6.4375 L 7.03125 -4.640625 L 6.953125 -4.640625 C 6.765625 -5.304688 6.472656 -5.785156 6.078125 -6.078125 C 5.679688 -6.367188 5.1875 -6.515625 4.59375 -6.515625 C 3.789062 -6.515625 3.175781 -6.238281 2.75 -5.6875 C 2.320312 -5.132812 2.109375 -4.382812 2.109375 -3.4375 C 2.109375 -2.488281 2.316406 -1.734375 2.734375 -1.171875 C 3.171875 -0.597656 3.757812 -0.3125 4.5 -0.3125 C 5.039062 -0.3125 5.484375 -0.394531 5.828125 -0.5625 C 6.171875 -0.726562 6.445312 -0.992188 6.65625 -1.359375 C 6.863281 -1.722656 7.015625 -2.21875 7.109375 -2.84375 L 7.1875 -2.84375 L 7.328125 -1.140625 C 7.085938 -0.753906 6.726562 -0.441406 6.25 -0.203125 C 5.769531 0.0234375 5.175781 0.140625 4.46875 0.140625 Z M 4.46875 0.140625 "/></g></g></g><g fill="#d8ab6f" fill-opacity="1"><g transform="translate(101.377827, 30.001461)"><g><path d="M 0.515625 -0.9375 C 0.515625 -1.425781 0.628906 -1.84375 0.859375 -2.1875 L 0.9375 -2.1875 C 0.9375 -2.132812 0.9375 -2.085938 0.9375 -2.046875 C 0.9375 -1.585938 1.097656 -1.179688 1.421875 -0.828125 C 1.753906 -0.484375 2.21875 -0.3125 2.8125 -0.3125 C 3.226562 -0.3125 3.550781 -0.40625 3.78125 -0.59375 C 4.019531 -0.789062 4.140625 -1.007812 4.140625 -1.25 C 4.140625 -1.5 4.070312 -1.695312 3.9375 -1.84375 C 3.800781 -1.988281 3.582031 -2.160156 3.28125 -2.359375 L 1.671875 -3.390625 C 0.984375 -3.804688 0.640625 -4.347656 0.640625 -5.015625 C 0.640625 -5.085938 0.644531 -5.160156 0.65625 -5.234375 C 0.707031 -5.773438 0.914062 -6.195312 1.28125 -6.5 C 1.65625 -6.8125 2.09375 -6.96875 2.59375 -6.96875 C 3.09375 -6.96875 3.625 -6.929688 4.1875 -6.859375 L 4.8125 -6.859375 L 4.640625 -5.359375 L 4.546875 -5.359375 C 4.546875 -5.710938 4.421875 -5.992188 4.171875 -6.203125 C 3.929688 -6.410156 3.609375 -6.515625 3.203125 -6.515625 C 2.796875 -6.515625 2.472656 -6.425781 2.234375 -6.25 C 2.003906 -6.082031 1.890625 -5.859375 1.890625 -5.578125 C 1.890625 -5.347656 2 -5.148438 2.21875 -4.984375 C 2.3125 -4.921875 2.445312 -4.832031 2.625 -4.71875 L 4.4375 -3.609375 C 5.050781 -3.234375 5.359375 -2.710938 5.359375 -2.046875 C 5.359375 -1.335938 5.109375 -0.796875 4.609375 -0.421875 C 4.117188 -0.046875 3.476562 0.140625 2.6875 0.140625 C 2.207031 0.140625 1.78125 0.0859375 1.40625 -0.015625 C 1.039062 -0.128906 0.769531 -0.273438 0.59375 -0.453125 C 0.539062 -0.585938 0.515625 -0.75 0.515625 -0.9375 Z M 0.515625 -0.9375 "/></g></g></g></svg>