<svg xmlns="http://www.w3.org/2000/svg" xmlns:xlink="http://www.w3.org/1999/xlink" width="200" zoomAndPan="magnify" viewBox="0 0 150 37.5" height="50" preserveAspectRatio="xMidYMid meet" version="1.0"><defs><g/><clipPath id="03a55d0140"><path d="M 0.988281 0 L 149.011719 0 L 149.011719 37.007812 L 0.988281 37.007812 Z M 0.988281 0 " clip-rule="nonzero"/></clipPath><clipPath id="d8558d6052"><path d="M 17 3 L 74.8125 3 L 74.8125 33.90625 L 17 33.90625 Z M 17 3 " clip-rule="nonzero"/></clipPath><clipPath id="427ee77975"><path d="M 2.277344 2.824219 L 74.8125 2.824219 L 74.8125 33.90625 L 2.277344 33.90625 Z M 2.277344 2.824219 " clip-rule="nonzero"/></clipPath></defs><g clip-path="url(#03a55d0140)"><path fill="#ffffff" d="M 0.988281 0 L 149.011719 0 L 149.011719 37.007812 L 0.988281 37.007812 Z M 0.988281 0 " fill-opacity="1" fill-rule="nonzero"/><path fill="#ffffff" d="M 0.988281 0 L 149.011719 0 L 149.011719 37.007812 L 0.988281 37.007812 Z M 0.988281 0 " fill-opacity="1" fill-rule="nonzero"/></g><g clip-path="url(#d8558d6052)"><path fill="#003b49" d="M 38.5625 30.921875 C 37.371094 29.90625 36.332031 28.75 35.472656 27.480469 L 35.460938 27.472656 L 35.324219 27.257812 L 35.242188 27.175781 L 35.167969 27.011719 C 35.011719 26.761719 34.859375 26.503906 34.710938 26.242188 C 34.511719 26.238281 34.304688 26.234375 34.089844 26.234375 L 23.46875 26.234375 L 17.710938 34.160156 L 44.019531 34.160156 C 41.953125 33.335938 40.121094 32.246094 38.5625 30.921875 Z M 52.921875 3.335938 C 50.246094 3.335938 47.773438 3.695312 45.503906 4.417969 C 43.230469 5.140625 41.269531 6.167969 39.628906 7.503906 C 39.085938 7.945312 38.578125 8.417969 38.113281 8.917969 L 43.988281 17.414062 C 44.101562 16.863281 44.285156 16.339844 44.535156 15.84375 C 44.996094 14.941406 45.632812 14.148438 46.445312 13.472656 C 47.261719 12.796875 48.222656 12.273438 49.328125 11.90625 C 50.433594 11.539062 51.628906 11.351562 52.921875 11.351562 L 68.816406 11.351562 L 74.992188 3.335938 Z M 52.921875 3.335938 " fill-opacity="1" fill-rule="nonzero"/></g><g clip-path="url(#427ee77975)"><path fill="#cb9a28" d="M 54.347656 14.902344 L 48.636719 21.765625 L 64.578125 21.765625 L 64.578125 26.234375 L 52.921875 26.234375 C 51.8125 26.234375 50.78125 26.113281 49.824219 25.863281 C 49.640625 25.816406 49.457031 25.761719 49.28125 25.707031 C 48.421875 25.429688 47.648438 25.066406 46.964844 24.617188 C 46.769531 24.488281 46.582031 24.351562 46.402344 24.207031 C 45.585938 23.5625 44.957031 22.789062 44.511719 21.882812 C 44.265625 21.382812 44.089844 20.855469 43.980469 20.296875 L 37.023438 10.230469 L 36.011719 8.761719 L 34.300781 6.285156 C 33.625 5.300781 32.800781 4.480469 31.835938 3.820312 C 30.867188 3.160156 29.660156 2.828125 28.21875 2.828125 C 26.710938 2.828125 25.46875 3.183594 24.484375 3.886719 C 23.5 4.59375 22.6875 5.394531 22.042969 6.285156 L 2.273438 34.160156 L 13.5625 34.160156 L 28.03125 13.703125 L 32.878906 20.855469 L 33.5625 21.859375 C 34.082031 22.597656 34.628906 23.386719 35.195312 24.230469 C 35.730469 25.023438 36.203125 25.6875 36.613281 26.222656 C 36.613281 26.222656 36.613281 26.226562 36.613281 26.226562 C 36.636719 26.257812 36.65625 26.292969 36.679688 26.328125 C 37.488281 27.570312 38.46875 28.683594 39.628906 29.667969 C 41.269531 31.066406 43.230469 32.164062 45.503906 32.964844 C 47.773438 33.761719 50.246094 34.160156 52.921875 34.160156 L 74.070312 34.160156 L 74.070312 14.902344 Z M 54.347656 14.902344 " fill-opacity="1" fill-rule="nonzero"/></g><g fill="#003b49" fill-opacity="1"><g transform="translate(78.999694, 16.696211)"><g><path d="M 7.359375 0.203125 C 5.296875 0.203125 3.671875 -0.3125 2.484375 -1.34375 C 1.304688 -2.382812 0.71875 -3.8125 0.71875 -5.625 C 0.71875 -7.4375 1.300781 -8.863281 2.46875 -9.90625 C 3.644531 -10.957031 5.25 -11.484375 7.28125 -11.484375 C 8.832031 -11.484375 10.164062 -11.191406 11.28125 -10.609375 L 11.3125 -7.84375 L 11.1875 -7.84375 C 10.644531 -9.8125 9.394531 -10.796875 7.4375 -10.796875 C 6.175781 -10.796875 5.175781 -10.335938 4.4375 -9.421875 C 3.707031 -8.515625 3.34375 -7.265625 3.34375 -5.671875 C 3.34375 -4.085938 3.691406 -2.828125 4.390625 -1.890625 C 5.097656 -0.960938 6.050781 -0.484375 7.25 -0.453125 C 8.488281 -0.453125 9.4375 -0.757812 10.09375 -1.375 C 10.757812 -2.019531 11.222656 -3.125 11.484375 -4.6875 L 11.609375 -4.6875 L 11.765625 -1.921875 C 10.898438 -0.492188 9.429688 0.210938 7.359375 0.203125 Z M 7.359375 0.203125 "/></g></g></g><g fill="#003b49" fill-opacity="1"><g transform="translate(91.530109, 16.696211)"><g><path d="M 10.703125 -0.15625 L 10.84375 -0.15625 L 10.84375 0 L 6.109375 0 L 6.109375 -0.15625 L 6.234375 -0.15625 C 6.453125 -0.15625 6.609375 -0.21875 6.703125 -0.34375 C 6.796875 -0.476562 6.84375 -0.597656 6.84375 -0.703125 C 6.84375 -0.816406 6.820312 -0.929688 6.78125 -1.046875 L 6.15625 -2.53125 L 2.75 -2.53125 L 2.109375 -1.03125 C 2.066406 -0.925781 2.046875 -0.816406 2.046875 -0.703125 C 2.046875 -0.585938 2.09375 -0.46875 2.1875 -0.34375 C 2.289062 -0.21875 2.453125 -0.15625 2.671875 -0.15625 L 2.796875 -0.15625 L 2.796875 0 L -0.421875 0 L -0.421875 -0.15625 L -0.296875 -0.15625 C -0.0664062 -0.15625 0.15625 -0.222656 0.375 -0.359375 C 0.601562 -0.503906 0.789062 -0.71875 0.9375 -1 L 4.265625 -8.140625 C 4.734375 -9.203125 4.976562 -9.851562 5 -10.09375 L 5.140625 -10.09375 L 9.453125 -1.0625 C 9.585938 -0.75 9.769531 -0.519531 10 -0.375 C 10.238281 -0.226562 10.472656 -0.15625 10.703125 -0.15625 Z M 3.015625 -3.15625 L 5.890625 -3.15625 L 4.46875 -6.515625 Z M 3.015625 -3.15625 "/></g></g></g><g fill="#003b49" fill-opacity="1"><g transform="translate(101.875731, 16.696211)"><g><path d="M 4.546875 -8.984375 L 4.03125 -8.984375 L 4.03125 -1.015625 C 4.03125 -0.753906 4.117188 -0.546875 4.296875 -0.390625 C 4.472656 -0.234375 4.675781 -0.15625 4.90625 -0.15625 L 5.078125 -0.15625 L 5.078125 0 L 0.65625 0 L 0.65625 -0.15625 L 0.859375 -0.15625 C 1.085938 -0.15625 1.285156 -0.234375 1.453125 -0.390625 C 1.617188 -0.554688 1.703125 -0.757812 1.703125 -1 L 1.703125 -8.65625 C 1.703125 -8.882812 1.617188 -9.078125 1.453125 -9.234375 C 1.285156 -9.398438 1.09375 -9.484375 0.875 -9.484375 L 0.65625 -9.484375 L 0.65625 -9.640625 L 5.59375 -9.640625 C 6.5625 -9.640625 7.367188 -9.453125 8.015625 -9.078125 C 8.742188 -8.660156 9.109375 -7.972656 9.109375 -7.015625 C 9.109375 -6.390625 8.921875 -5.828125 8.546875 -5.328125 C 8.171875 -4.828125 7.613281 -4.523438 6.875 -4.421875 C 7.164062 -4.328125 7.453125 -4.144531 7.734375 -3.875 C 8.023438 -3.601562 8.253906 -3.332031 8.421875 -3.0625 C 8.765625 -2.445312 9.125 -1.882812 9.5 -1.375 C 9.875 -0.863281 10.175781 -0.53125 10.40625 -0.375 C 10.632812 -0.226562 10.914062 -0.15625 11.25 -0.15625 L 11.25 0 L 9.90625 0 C 9.007812 0 8.320312 -0.101562 7.84375 -0.3125 C 7.375 -0.53125 6.953125 -0.941406 6.578125 -1.546875 C 5.992188 -2.460938 5.632812 -3.191406 5.5 -3.734375 C 5.375 -4.054688 5.222656 -4.296875 5.046875 -4.453125 C 4.867188 -4.609375 4.695312 -4.703125 4.53125 -4.734375 L 4.53125 -4.859375 L 4.9375 -4.859375 C 5.84375 -4.867188 6.398438 -5.40625 6.609375 -6.46875 C 6.648438 -6.625 6.671875 -6.757812 6.671875 -6.875 C 6.671875 -7 6.664062 -7.164062 6.65625 -7.375 C 6.644531 -7.582031 6.578125 -7.816406 6.453125 -8.078125 C 6.328125 -8.335938 6.171875 -8.53125 5.984375 -8.65625 C 5.648438 -8.851562 5.304688 -8.957031 4.953125 -8.96875 C 4.835938 -8.976562 4.703125 -8.984375 4.546875 -8.984375 Z M 4.546875 -8.984375 "/></g></g></g><g fill="#003b49" fill-opacity="1"><g transform="translate(112.430203, 16.696211)"><g><path d="M 1.984375 -1.140625 C 1.023438 -2.035156 0.546875 -3.265625 0.546875 -4.828125 C 0.546875 -6.398438 1.023438 -7.628906 1.984375 -8.515625 C 2.941406 -9.410156 4.265625 -9.859375 5.953125 -9.859375 C 6.703125 -9.859375 7.441406 -9.789062 8.171875 -9.65625 C 8.898438 -9.519531 9.488281 -9.335938 9.9375 -9.109375 L 9.9375 -6.5625 L 9.8125 -6.5625 C 9.332031 -8.332031 8.207031 -9.21875 6.4375 -9.21875 C 5.320312 -9.21875 4.46875 -8.828125 3.875 -8.046875 C 3.289062 -7.265625 3 -6.179688 3 -4.796875 C 3 -3.410156 3.265625 -2.335938 3.796875 -1.578125 C 4.328125 -0.816406 5.082031 -0.4375 6.0625 -0.4375 C 6.59375 -0.4375 7.070312 -0.5625 7.5 -0.8125 C 7.9375 -1.0625 8.222656 -1.421875 8.359375 -1.890625 L 8.375 -3.828125 C 8.375 -4.023438 8.3125 -4.179688 8.1875 -4.296875 C 8.0625 -4.410156 7.890625 -4.46875 7.671875 -4.46875 L 7.4375 -4.46875 L 7.4375 -4.59375 L 11.578125 -4.59375 L 11.578125 -4.46875 L 11.390625 -4.46875 C 10.910156 -4.46875 10.671875 -4.253906 10.671875 -3.828125 L 10.671875 -1.671875 C 10.296875 -1.191406 9.660156 -0.757812 8.765625 -0.375 C 7.878906 0.0078125 6.910156 0.203125 5.859375 0.203125 C 4.234375 0.191406 2.941406 -0.253906 1.984375 -1.140625 Z M 1.984375 -1.140625 "/></g></g></g><g fill="#003b49" fill-opacity="1"><g transform="translate(124.157382, 16.696211)"><g><path d="M 0.5625 -4.828125 C 0.5625 -6.367188 1.078125 -7.59375 2.109375 -8.5 C 3.148438 -9.40625 4.53125 -9.859375 6.25 -9.859375 C 7.96875 -9.859375 9.347656 -9.40625 10.390625 -8.5 C 11.429688 -7.59375 11.953125 -6.367188 11.953125 -4.828125 C 11.953125 -3.285156 11.429688 -2.0625 10.390625 -1.15625 C 9.347656 -0.25 7.96875 0.203125 6.25 0.203125 C 4.539062 0.203125 3.164062 -0.25 2.125 -1.15625 C 1.082031 -2.0625 0.5625 -3.285156 0.5625 -4.828125 Z M 3.015625 -4.8125 C 3.015625 -3.46875 3.304688 -2.398438 3.890625 -1.609375 C 4.484375 -0.828125 5.269531 -0.4375 6.25 -0.4375 C 7.226562 -0.4375 8.007812 -0.828125 8.59375 -1.609375 C 9.175781 -2.398438 9.46875 -3.46875 9.46875 -4.8125 C 9.46875 -6.164062 9.175781 -7.238281 8.59375 -8.03125 C 8.007812 -8.820312 7.226562 -9.21875 6.25 -9.21875 C 5.269531 -9.21875 4.484375 -8.820312 3.890625 -8.03125 C 3.304688 -7.238281 3.015625 -6.164062 3.015625 -4.8125 Z M 3.015625 -4.8125 "/></g></g></g><g fill="#cb9a28" fill-opacity="1"><g transform="translate(79.787681, 29.174507)"><g><path d="M 0.671875 -0.125 C 0.878906 -0.125 1.054688 -0.195312 1.203125 -0.34375 C 1.359375 -0.5 1.441406 -0.679688 1.453125 -0.890625 L 1.453125 -7.625 C 1.441406 -7.84375 1.359375 -8.023438 1.203125 -8.171875 C 1.054688 -8.328125 0.878906 -8.40625 0.671875 -8.40625 L 0.515625 -8.40625 L 0.515625 -8.515625 L 4.21875 -8.515625 L 4.203125 -8.40625 L 4.046875 -8.40625 C 3.835938 -8.40625 3.65625 -8.328125 3.5 -8.171875 C 3.351562 -8.023438 3.28125 -7.84375 3.28125 -7.625 L 3.28125 -0.515625 L 4.875 -0.515625 C 5.457031 -0.515625 5.953125 -0.6875 6.359375 -1.03125 C 6.765625 -1.375 7.0625 -1.859375 7.25 -2.484375 L 7.375 -2.484375 L 6.8125 0 L 0.515625 0 L 0.515625 -0.125 Z M 0.671875 -0.125 "/></g></g></g><g fill="#cb9a28" fill-opacity="1"><g transform="translate(87.278474, 29.174507)"><g><path d="M 0.421875 -3.65625 C 0.421875 -4.820312 0.8125 -5.75 1.59375 -6.4375 C 2.382812 -7.125 3.429688 -7.46875 4.734375 -7.46875 C 6.035156 -7.46875 7.078125 -7.125 7.859375 -6.4375 C 8.648438 -5.75 9.046875 -4.820312 9.046875 -3.65625 C 9.046875 -2.488281 8.648438 -1.5625 7.859375 -0.875 C 7.078125 -0.1875 6.035156 0.15625 4.734375 0.15625 C 3.429688 0.15625 2.382812 -0.1875 1.59375 -0.875 C 0.8125 -1.5625 0.421875 -2.488281 0.421875 -3.65625 Z M 2.28125 -3.65625 C 2.28125 -2.632812 2.5 -1.820312 2.9375 -1.21875 C 3.382812 -0.625 3.976562 -0.328125 4.71875 -0.328125 C 5.46875 -0.328125 6.0625 -0.625 6.5 -1.21875 C 6.945312 -1.820312 7.171875 -2.632812 7.171875 -3.65625 C 7.171875 -4.675781 6.945312 -5.484375 6.5 -6.078125 C 6.0625 -6.671875 5.46875 -6.96875 4.71875 -6.96875 C 3.976562 -6.96875 3.382812 -6.671875 2.9375 -6.078125 C 2.5 -5.484375 2.28125 -4.675781 2.28125 -3.65625 Z M 2.28125 -3.65625 "/></g></g></g><g fill="#cb9a28" fill-opacity="1"><g transform="translate(96.727079, 29.174507)"><g><path d="M 1.5 -0.875 C 0.769531 -1.550781 0.40625 -2.476562 0.40625 -3.65625 C 0.40625 -4.84375 0.769531 -5.773438 1.5 -6.453125 C 2.226562 -7.128906 3.226562 -7.46875 4.5 -7.46875 C 5.070312 -7.46875 5.632812 -7.414062 6.1875 -7.3125 C 6.738281 -7.207031 7.179688 -7.070312 7.515625 -6.90625 L 7.515625 -4.96875 L 7.421875 -4.96875 C 7.066406 -6.300781 6.21875 -6.96875 4.875 -6.96875 C 4.03125 -6.96875 3.382812 -6.671875 2.9375 -6.078125 C 2.5 -5.492188 2.28125 -4.675781 2.28125 -3.625 C 2.28125 -2.582031 2.476562 -1.769531 2.875 -1.1875 C 3.28125 -0.613281 3.851562 -0.328125 4.59375 -0.328125 C 5 -0.328125 5.363281 -0.421875 5.6875 -0.609375 C 6.007812 -0.804688 6.222656 -1.082031 6.328125 -1.4375 L 6.34375 -2.890625 C 6.34375 -3.046875 6.296875 -3.164062 6.203125 -3.25 C 6.109375 -3.34375 5.976562 -3.390625 5.8125 -3.390625 L 5.640625 -3.390625 L 5.640625 -3.484375 L 8.765625 -3.484375 L 8.765625 -3.390625 L 8.625 -3.390625 C 8.257812 -3.390625 8.078125 -3.222656 8.078125 -2.890625 L 8.078125 -1.265625 C 7.796875 -0.898438 7.316406 -0.570312 6.640625 -0.28125 C 5.972656 0.0078125 5.238281 0.15625 4.4375 0.15625 C 3.207031 0.144531 2.226562 -0.195312 1.5 -0.875 Z M 1.5 -0.875 "/></g></g></g><g fill="#cb9a28" fill-opacity="1"><g transform="translate(105.604153, 29.174507)"><g><path d="M 0.40625 -0.125 L 0.5625 -0.125 C 0.757812 -0.125 0.925781 -0.1875 1.0625 -0.3125 C 1.195312 -0.4375 1.265625 -0.585938 1.265625 -0.765625 L 1.265625 -6.53125 C 1.265625 -6.707031 1.195312 -6.859375 1.0625 -6.984375 C 0.925781 -7.117188 0.757812 -7.1875 0.5625 -7.1875 L 0.40625 -7.1875 L 0.40625 -7.296875 L 3.875 -7.296875 L 3.875 -7.1875 L 3.71875 -7.1875 C 3.53125 -7.1875 3.367188 -7.125 3.234375 -7 C 3.097656 -6.875 3.023438 -6.722656 3.015625 -6.546875 L 3.015625 -0.765625 C 3.023438 -0.578125 3.097656 -0.421875 3.234375 -0.296875 C 3.367188 -0.179688 3.53125 -0.125 3.71875 -0.125 L 3.875 -0.125 L 3.875 0 L 0.40625 0 Z M 0.40625 -0.125 "/></g></g></g><g fill="#cb9a28" fill-opacity="1"><g transform="translate(109.884603, 29.174507)"><g><path d="M 0.5625 -1 C 0.5625 -1.53125 0.675781 -1.976562 0.90625 -2.34375 L 1.015625 -2.34375 C 1.003906 -2.289062 1 -2.238281 1 -2.1875 C 1 -1.695312 1.175781 -1.265625 1.53125 -0.890625 C 1.882812 -0.515625 2.375 -0.328125 3 -0.328125 C 3.457031 -0.328125 3.8125 -0.429688 4.0625 -0.640625 C 4.3125 -0.859375 4.4375 -1.09375 4.4375 -1.34375 C 4.4375 -1.601562 4.363281 -1.8125 4.21875 -1.96875 C 4.070312 -2.132812 3.835938 -2.320312 3.515625 -2.53125 L 1.796875 -3.625 C 1.054688 -4.082031 0.6875 -4.664062 0.6875 -5.375 C 0.6875 -5.445312 0.691406 -5.523438 0.703125 -5.609375 C 0.753906 -6.179688 0.976562 -6.632812 1.375 -6.96875 C 1.769531 -7.300781 2.238281 -7.46875 2.78125 -7.46875 C 3.320312 -7.46875 3.890625 -7.429688 4.484375 -7.359375 L 5.15625 -7.359375 L 4.984375 -5.75 L 4.875 -5.75 C 4.875 -6.125 4.738281 -6.421875 4.46875 -6.640625 C 4.207031 -6.859375 3.859375 -6.96875 3.421875 -6.96875 C 2.992188 -6.96875 2.648438 -6.875 2.390625 -6.6875 C 2.140625 -6.507812 2.015625 -6.269531 2.015625 -5.96875 C 2.015625 -5.726562 2.140625 -5.519531 2.390625 -5.34375 C 2.484375 -5.269531 2.625 -5.175781 2.8125 -5.0625 L 4.75 -3.875 C 5.414062 -3.46875 5.75 -2.90625 5.75 -2.1875 C 5.75 -1.4375 5.484375 -0.859375 4.953125 -0.453125 C 4.421875 -0.046875 3.734375 0.15625 2.890625 0.15625 C 2.367188 0.15625 1.90625 0.0976562 1.5 -0.015625 C 1.101562 -0.140625 0.816406 -0.296875 0.640625 -0.484375 C 0.585938 -0.628906 0.5625 -0.800781 0.5625 -1 Z M 0.5625 -1 "/></g></g></g><g fill="#cb9a28" fill-opacity="1"><g transform="translate(116.13503, 29.174507)"><g><path d="M 7.046875 -5.578125 L 7.046875 -5.6875 C 7.046875 -6.03125 6.945312 -6.300781 6.75 -6.5 C 6.5625 -6.707031 6.289062 -6.816406 5.9375 -6.828125 L 4.53125 -6.828125 L 4.53125 -0.75 C 4.539062 -0.570312 4.609375 -0.421875 4.734375 -0.296875 C 4.859375 -0.179688 5.015625 -0.125 5.203125 -0.125 L 5.328125 -0.125 L 5.328125 0 L 1.96875 0 L 1.96875 -0.125 L 2.09375 -0.125 C 2.28125 -0.125 2.4375 -0.179688 2.5625 -0.296875 C 2.695312 -0.421875 2.765625 -0.578125 2.765625 -0.765625 L 2.765625 -6.828125 L 1.359375 -6.828125 C 1.003906 -6.816406 0.726562 -6.707031 0.53125 -6.5 C 0.34375 -6.300781 0.25 -6.03125 0.25 -5.6875 L 0.25 -5.578125 L 0.125 -5.578125 L 0.125 -7.5 C 0.238281 -7.457031 0.425781 -7.414062 0.6875 -7.375 C 0.945312 -7.332031 1.1875 -7.3125 1.40625 -7.3125 L 5.890625 -7.3125 C 6.242188 -7.3125 6.535156 -7.335938 6.765625 -7.390625 C 7.003906 -7.441406 7.140625 -7.476562 7.171875 -7.5 L 7.171875 -5.578125 Z M 7.046875 -5.578125 "/></g></g></g><g fill="#cb9a28" fill-opacity="1"><g transform="translate(123.419092, 29.174507)"><g><path d="M 0.40625 -0.125 L 0.5625 -0.125 C 0.757812 -0.125 0.925781 -0.1875 1.0625 -0.3125 C 1.195312 -0.4375 1.265625 -0.585938 1.265625 -0.765625 L 1.265625 -6.53125 C 1.265625 -6.707031 1.195312 -6.859375 1.0625 -6.984375 C 0.925781 -7.117188 0.757812 -7.1875 0.5625 -7.1875 L 0.40625 -7.1875 L 0.40625 -7.296875 L 3.875 -7.296875 L 3.875 -7.1875 L 3.71875 -7.1875 C 3.53125 -7.1875 3.367188 -7.125 3.234375 -7 C 3.097656 -6.875 3.023438 -6.722656 3.015625 -6.546875 L 3.015625 -0.765625 C 3.023438 -0.578125 3.097656 -0.421875 3.234375 -0.296875 C 3.367188 -0.179688 3.53125 -0.125 3.71875 -0.125 L 3.875 -0.125 L 3.875 0 L 0.40625 0 Z M 0.40625 -0.125 "/></g></g></g><g fill="#cb9a28" fill-opacity="1"><g transform="translate(127.699541, 29.174507)"><g><path d="M 4.796875 0.15625 C 3.429688 0.144531 2.359375 -0.191406 1.578125 -0.859375 C 0.796875 -1.523438 0.40625 -2.453125 0.40625 -3.640625 C 0.40625 -4.835938 0.789062 -5.773438 1.5625 -6.453125 C 2.34375 -7.128906 3.421875 -7.46875 4.796875 -7.46875 C 5.867188 -7.46875 6.78125 -7.28125 7.53125 -6.90625 L 7.53125 -4.96875 L 7.453125 -4.96875 C 7.242188 -5.6875 6.925781 -6.195312 6.5 -6.5 C 6.082031 -6.8125 5.554688 -6.96875 4.921875 -6.96875 C 4.054688 -6.96875 3.394531 -6.671875 2.9375 -6.078125 C 2.488281 -5.492188 2.265625 -4.691406 2.265625 -3.671875 C 2.265625 -2.660156 2.488281 -1.851562 2.9375 -1.25 C 3.394531 -0.632812 4.019531 -0.328125 4.8125 -0.328125 C 5.394531 -0.328125 5.867188 -0.414062 6.234375 -0.59375 C 6.609375 -0.769531 6.90625 -1.054688 7.125 -1.453125 C 7.351562 -1.847656 7.519531 -2.382812 7.625 -3.0625 L 7.703125 -3.0625 L 7.84375 -1.21875 C 7.59375 -0.800781 7.207031 -0.46875 6.6875 -0.21875 C 6.175781 0.03125 5.546875 0.15625 4.796875 0.15625 Z M 4.796875 0.15625 "/></g></g></g><g fill="#cb9a28" fill-opacity="1"><g transform="translate(135.992917, 29.174507)"><g><path d="M 0.5625 -1 C 0.5625 -1.53125 0.675781 -1.976562 0.90625 -2.34375 L 1.015625 -2.34375 C 1.003906 -2.289062 1 -2.238281 1 -2.1875 C 1 -1.695312 1.175781 -1.265625 1.53125 -0.890625 C 1.882812 -0.515625 2.375 -0.328125 3 -0.328125 C 3.457031 -0.328125 3.8125 -0.429688 4.0625 -0.640625 C 4.3125 -0.859375 4.4375 -1.09375 4.4375 -1.34375 C 4.4375 -1.601562 4.363281 -1.8125 4.21875 -1.96875 C 4.070312 -2.132812 3.835938 -2.320312 3.515625 -2.53125 L 1.796875 -3.625 C 1.054688 -4.082031 0.6875 -4.664062 0.6875 -5.375 C 0.6875 -5.445312 0.691406 -5.523438 0.703125 -5.609375 C 0.753906 -6.179688 0.976562 -6.632812 1.375 -6.96875 C 1.769531 -7.300781 2.238281 -7.46875 2.78125 -7.46875 C 3.320312 -7.46875 3.890625 -7.429688 4.484375 -7.359375 L 5.15625 -7.359375 L 4.984375 -5.75 L 4.875 -5.75 C 4.875 -6.125 4.738281 -6.421875 4.46875 -6.640625 C 4.207031 -6.859375 3.859375 -6.96875 3.421875 -6.96875 C 2.992188 -6.96875 2.648438 -6.875 2.390625 -6.6875 C 2.140625 -6.507812 2.015625 -6.269531 2.015625 -5.96875 C 2.015625 -5.726562 2.140625 -5.519531 2.390625 -5.34375 C 2.484375 -5.269531 2.625 -5.175781 2.8125 -5.0625 L 4.75 -3.875 C 5.414062 -3.46875 5.75 -2.90625 5.75 -2.1875 C 5.75 -1.4375 5.484375 -0.859375 4.953125 -0.453125 C 4.421875 -0.046875 3.734375 0.15625 2.890625 0.15625 C 2.367188 0.15625 1.90625 0.0976562 1.5 -0.015625 C 1.101562 -0.140625 0.816406 -0.296875 0.640625 -0.484375 C 0.585938 -0.628906 0.5625 -0.800781 0.5625 -1 Z M 0.5625 -1 "/></g></g></g></svg>